<mxfile host="app.diagrams.net" agent="Mozilla/5.0 (Macintosh; Intel Mac OS X 10_15_7) AppleWebKit/537.36 (KHTML, like Gecko) Chrome/131.0.0.0 Safari/537.36" version="26.0.2">
  <diagram name="第 1 页" id="F_NSMGxIzK2aPqWop-WH">
    <mxGraphModel dx="2110" dy="1083" grid="1" gridSize="10" guides="1" tooltips="1" connect="1" arrows="1" fold="1" page="1" pageScale="1" pageWidth="827" pageHeight="1169" math="0" shadow="0">
      <root>
        <mxCell id="0" />
        <mxCell id="1" parent="0" />
        <mxCell id="ZSUmyzXB2fES_6F9nTxg-10" value="" style="edgeStyle=orthogonalEdgeStyle;rounded=0;orthogonalLoop=1;jettySize=auto;html=1;" edge="1" parent="1" source="mXxrbGlmwr1-6T_xw9jQ-14" target="mXxrbGlmwr1-6T_xw9jQ-15">
          <mxGeometry relative="1" as="geometry" />
        </mxCell>
        <mxCell id="mXxrbGlmwr1-6T_xw9jQ-14" value="开始" style="rounded=1;whiteSpace=wrap;html=1;" parent="1" vertex="1">
          <mxGeometry x="150" y="80" width="90" height="40" as="geometry" />
        </mxCell>
        <mxCell id="ZSUmyzXB2fES_6F9nTxg-11" value="" style="edgeStyle=orthogonalEdgeStyle;rounded=0;orthogonalLoop=1;jettySize=auto;html=1;" edge="1" parent="1" source="mXxrbGlmwr1-6T_xw9jQ-15" target="mXxrbGlmwr1-6T_xw9jQ-17">
          <mxGeometry relative="1" as="geometry" />
        </mxCell>
        <mxCell id="mXxrbGlmwr1-6T_xw9jQ-15" value="预处理" style="rounded=0;whiteSpace=wrap;html=1;" parent="1" vertex="1">
          <mxGeometry x="147.5" y="160" width="95" height="40" as="geometry" />
        </mxCell>
        <mxCell id="ZSUmyzXB2fES_6F9nTxg-12" value="" style="edgeStyle=orthogonalEdgeStyle;rounded=0;orthogonalLoop=1;jettySize=auto;html=1;" edge="1" parent="1" source="mXxrbGlmwr1-6T_xw9jQ-17" target="mXxrbGlmwr1-6T_xw9jQ-18">
          <mxGeometry relative="1" as="geometry" />
        </mxCell>
        <mxCell id="mXxrbGlmwr1-6T_xw9jQ-17" value="日志序列粗粒度分割&lt;div&gt;&quot;空格解析”&lt;/div&gt;" style="rounded=1;whiteSpace=wrap;html=1;" parent="1" vertex="1">
          <mxGeometry x="130" y="240" width="130" height="50" as="geometry" />
        </mxCell>
        <mxCell id="ZSUmyzXB2fES_6F9nTxg-13" value="" style="edgeStyle=orthogonalEdgeStyle;rounded=0;orthogonalLoop=1;jettySize=auto;html=1;" edge="1" parent="1" source="mXxrbGlmwr1-6T_xw9jQ-18" target="ZSUmyzXB2fES_6F9nTxg-9">
          <mxGeometry relative="1" as="geometry" />
        </mxCell>
        <mxCell id="mXxrbGlmwr1-6T_xw9jQ-18" value="基于固定深度的汉明相似度的解析，查找rootHamNode节点" style="rounded=1;whiteSpace=wrap;html=1;" parent="1" vertex="1">
          <mxGeometry x="138.75" y="350" width="111.25" height="50" as="geometry" />
        </mxCell>
        <mxCell id="mXxrbGlmwr1-6T_xw9jQ-19" value="多层解析&lt;div&gt;第一层 固定深度树解析 类似Drain算法&lt;/div&gt;&lt;div&gt;第二层 LCS解析&lt;/div&gt;" style="text;html=1;align=center;verticalAlign=middle;resizable=0;points=[];autosize=1;strokeColor=none;fillColor=none;" parent="1" vertex="1">
          <mxGeometry x="385" width="230" height="60" as="geometry" />
        </mxCell>
        <mxCell id="mXxrbGlmwr1-6T_xw9jQ-20" value="&lt;div&gt;&lt;div&gt;&lt;div&gt;&lt;div&gt;&lt;br&gt;&lt;/div&gt;&lt;/div&gt;&lt;/div&gt;&lt;/div&gt;" style="text;html=1;align=center;verticalAlign=middle;resizable=0;points=[];autosize=1;strokeColor=none;fillColor=none;" parent="1" vertex="1">
          <mxGeometry x="707" y="210" width="20" height="30" as="geometry" />
        </mxCell>
        <mxCell id="ZSUmyzXB2fES_6F9nTxg-2" value="&lt;div&gt;&lt;div&gt;可变长日志解析&lt;/div&gt;&lt;div&gt;复杂度降低&lt;/div&gt;&lt;/div&gt;基于token的细粒度解析&lt;div&gt;&lt;br&gt;&lt;/div&gt;" style="text;html=1;align=left;verticalAlign=middle;resizable=0;points=[];autosize=1;strokeColor=none;fillColor=none;" vertex="1" parent="1">
          <mxGeometry x="688.5" width="150" height="70" as="geometry" />
        </mxCell>
        <mxCell id="ZSUmyzXB2fES_6F9nTxg-6" value="&lt;div style=&quot;background-color: rgb(255, 255, 255); color: rgb(8, 8, 8);&quot;&gt;&lt;pre style=&quot;&quot;&gt;&lt;div style=&quot;color: light-dark(rgb(8, 8, 8), rgb(230, 230, 230)); font-family: &amp;quot;JetBrains Mono&amp;quot;, monospace; font-size: 9.8pt; text-align: left;&quot;&gt;&lt;br&gt;&lt;/div&gt;&lt;/pre&gt;&lt;/div&gt;" style="text;html=1;align=center;verticalAlign=middle;resizable=0;points=[];autosize=1;strokeColor=none;fillColor=none;" vertex="1" parent="1">
          <mxGeometry x="620" y="218" width="20" height="50" as="geometry" />
        </mxCell>
        <mxCell id="ZSUmyzXB2fES_6F9nTxg-15" value="是" style="edgeStyle=orthogonalEdgeStyle;rounded=0;orthogonalLoop=1;jettySize=auto;html=1;" edge="1" parent="1" source="ZSUmyzXB2fES_6F9nTxg-9" target="ZSUmyzXB2fES_6F9nTxg-14">
          <mxGeometry relative="1" as="geometry" />
        </mxCell>
        <mxCell id="ZSUmyzXB2fES_6F9nTxg-39" style="edgeStyle=orthogonalEdgeStyle;rounded=0;orthogonalLoop=1;jettySize=auto;html=1;" edge="1" parent="1" source="ZSUmyzXB2fES_6F9nTxg-9" target="ZSUmyzXB2fES_6F9nTxg-29">
          <mxGeometry relative="1" as="geometry" />
        </mxCell>
        <mxCell id="ZSUmyzXB2fES_6F9nTxg-49" value="否" style="edgeLabel;html=1;align=center;verticalAlign=middle;resizable=0;points=[];" vertex="1" connectable="0" parent="ZSUmyzXB2fES_6F9nTxg-39">
          <mxGeometry x="-0.1479" y="3" relative="1" as="geometry">
            <mxPoint as="offset" />
          </mxGeometry>
        </mxCell>
        <mxCell id="ZSUmyzXB2fES_6F9nTxg-9" value="是否找到模板" style="rhombus;whiteSpace=wrap;html=1;" vertex="1" parent="1">
          <mxGeometry x="150" y="440" width="88.75" height="50" as="geometry" />
        </mxCell>
        <mxCell id="ZSUmyzXB2fES_6F9nTxg-18" value="" style="edgeStyle=orthogonalEdgeStyle;rounded=0;orthogonalLoop=1;jettySize=auto;html=1;" edge="1" parent="1" source="ZSUmyzXB2fES_6F9nTxg-14" target="ZSUmyzXB2fES_6F9nTxg-17">
          <mxGeometry relative="1" as="geometry" />
        </mxCell>
        <mxCell id="ZSUmyzXB2fES_6F9nTxg-14" value="比较找到的日志模板与现有日志序列进行模版提取，并对token进行细粒度划分" style="rounded=1;whiteSpace=wrap;html=1;" vertex="1" parent="1">
          <mxGeometry x="121" y="570" width="148" height="60" as="geometry" />
        </mxCell>
        <mxCell id="ZSUmyzXB2fES_6F9nTxg-16" value="开始第二层解析" style="rounded=1;whiteSpace=wrap;html=1;" vertex="1" parent="1">
          <mxGeometry x="410" y="240" width="115" height="50" as="geometry" />
        </mxCell>
        <mxCell id="ZSUmyzXB2fES_6F9nTxg-23" value="" style="edgeStyle=orthogonalEdgeStyle;rounded=0;orthogonalLoop=1;jettySize=auto;html=1;" edge="1" parent="1" source="ZSUmyzXB2fES_6F9nTxg-17" target="ZSUmyzXB2fES_6F9nTxg-22">
          <mxGeometry relative="1" as="geometry" />
        </mxCell>
        <mxCell id="ZSUmyzXB2fES_6F9nTxg-65" value="是" style="edgeLabel;html=1;align=center;verticalAlign=middle;resizable=0;points=[];" vertex="1" connectable="0" parent="ZSUmyzXB2fES_6F9nTxg-23">
          <mxGeometry x="-0.2075" y="3" relative="1" as="geometry">
            <mxPoint as="offset" />
          </mxGeometry>
        </mxCell>
        <mxCell id="ZSUmyzXB2fES_6F9nTxg-36" style="edgeStyle=orthogonalEdgeStyle;rounded=0;orthogonalLoop=1;jettySize=auto;html=1;entryX=0.5;entryY=0;entryDx=0;entryDy=0;" edge="1" parent="1" source="ZSUmyzXB2fES_6F9nTxg-17" target="ZSUmyzXB2fES_6F9nTxg-19">
          <mxGeometry relative="1" as="geometry" />
        </mxCell>
        <mxCell id="ZSUmyzXB2fES_6F9nTxg-37" value="否" style="edgeLabel;html=1;align=center;verticalAlign=middle;resizable=0;points=[];" vertex="1" connectable="0" parent="ZSUmyzXB2fES_6F9nTxg-36">
          <mxGeometry x="-0.7873" y="-2" relative="1" as="geometry">
            <mxPoint as="offset" />
          </mxGeometry>
        </mxCell>
        <mxCell id="ZSUmyzXB2fES_6F9nTxg-17" value="模板是否有变化" style="rhombus;whiteSpace=wrap;html=1;" vertex="1" parent="1">
          <mxGeometry x="147.5" y="690" width="95" height="60" as="geometry" />
        </mxCell>
        <mxCell id="ZSUmyzXB2fES_6F9nTxg-58" value="" style="edgeStyle=orthogonalEdgeStyle;rounded=0;orthogonalLoop=1;jettySize=auto;html=1;" edge="1" parent="1" source="ZSUmyzXB2fES_6F9nTxg-19" target="ZSUmyzXB2fES_6F9nTxg-57">
          <mxGeometry relative="1" as="geometry" />
        </mxCell>
        <mxCell id="ZSUmyzXB2fES_6F9nTxg-19" value="把这一条日志id增加到相应模板序列里面" style="rounded=1;whiteSpace=wrap;html=1;" vertex="1" parent="1">
          <mxGeometry x="230" y="880" width="720" height="30" as="geometry" />
        </mxCell>
        <mxCell id="ZSUmyzXB2fES_6F9nTxg-60" style="edgeStyle=orthogonalEdgeStyle;rounded=0;orthogonalLoop=1;jettySize=auto;html=1;entryX=0.5;entryY=0;entryDx=0;entryDy=0;" edge="1" parent="1" source="ZSUmyzXB2fES_6F9nTxg-22" target="ZSUmyzXB2fES_6F9nTxg-19">
          <mxGeometry relative="1" as="geometry" />
        </mxCell>
        <mxCell id="ZSUmyzXB2fES_6F9nTxg-22" value="更新第二层需要的&lt;div&gt;rootLCSNode节点&lt;/div&gt;" style="rounded=1;whiteSpace=wrap;html=1;" vertex="1" parent="1">
          <mxGeometry x="300" y="692.82" width="100" height="54.37" as="geometry" />
        </mxCell>
        <mxCell id="ZSUmyzXB2fES_6F9nTxg-41" value="" style="edgeStyle=orthogonalEdgeStyle;rounded=0;orthogonalLoop=1;jettySize=auto;html=1;" edge="1" parent="1" source="ZSUmyzXB2fES_6F9nTxg-29" target="ZSUmyzXB2fES_6F9nTxg-30">
          <mxGeometry relative="1" as="geometry" />
        </mxCell>
        <mxCell id="ZSUmyzXB2fES_6F9nTxg-50" value="否" style="edgeLabel;html=1;align=center;verticalAlign=middle;resizable=0;points=[];" vertex="1" connectable="0" parent="ZSUmyzXB2fES_6F9nTxg-41">
          <mxGeometry x="-0.2579" relative="1" as="geometry">
            <mxPoint as="offset" />
          </mxGeometry>
        </mxCell>
        <mxCell id="ZSUmyzXB2fES_6F9nTxg-61" style="edgeStyle=orthogonalEdgeStyle;rounded=0;orthogonalLoop=1;jettySize=auto;html=1;entryX=0.5;entryY=0;entryDx=0;entryDy=0;" edge="1" parent="1" source="ZSUmyzXB2fES_6F9nTxg-29" target="ZSUmyzXB2fES_6F9nTxg-19">
          <mxGeometry relative="1" as="geometry" />
        </mxCell>
        <mxCell id="ZSUmyzXB2fES_6F9nTxg-29" value="查找rootLCSNode&lt;div&gt;前缀树&lt;span style=&quot;background-color: transparent; color: light-dark(rgb(0, 0, 0), rgb(255, 255, 255));&quot;&gt;中是否&lt;/span&gt;&lt;/div&gt;&lt;div&gt;&lt;span style=&quot;background-color: transparent; color: light-dark(rgb(0, 0, 0), rgb(255, 255, 255));&quot;&gt;有相应模板&lt;/span&gt;&lt;/div&gt;" style="rhombus;whiteSpace=wrap;html=1;" vertex="1" parent="1">
          <mxGeometry x="410" y="422.5" width="165" height="85" as="geometry" />
        </mxCell>
        <mxCell id="ZSUmyzXB2fES_6F9nTxg-45" style="edgeStyle=orthogonalEdgeStyle;rounded=0;orthogonalLoop=1;jettySize=auto;html=1;entryX=0;entryY=0.5;entryDx=0;entryDy=0;" edge="1" parent="1" source="ZSUmyzXB2fES_6F9nTxg-30" target="ZSUmyzXB2fES_6F9nTxg-42">
          <mxGeometry relative="1" as="geometry" />
        </mxCell>
        <mxCell id="ZSUmyzXB2fES_6F9nTxg-51" value="否" style="edgeLabel;html=1;align=center;verticalAlign=middle;resizable=0;points=[];" vertex="1" connectable="0" parent="ZSUmyzXB2fES_6F9nTxg-45">
          <mxGeometry x="0.0095" y="-2" relative="1" as="geometry">
            <mxPoint as="offset" />
          </mxGeometry>
        </mxCell>
        <mxCell id="ZSUmyzXB2fES_6F9nTxg-62" style="edgeStyle=orthogonalEdgeStyle;rounded=0;orthogonalLoop=1;jettySize=auto;html=1;entryX=0.5;entryY=0;entryDx=0;entryDy=0;" edge="1" parent="1" source="ZSUmyzXB2fES_6F9nTxg-30" target="ZSUmyzXB2fES_6F9nTxg-19">
          <mxGeometry relative="1" as="geometry" />
        </mxCell>
        <mxCell id="ZSUmyzXB2fES_6F9nTxg-30" value="查找LogCluster中&lt;div&gt;&lt;span style=&quot;background-color: transparent; color: light-dark(rgb(0, 0, 0), rgb(255, 255, 255));&quot;&gt;是否有相应模板&lt;/span&gt;&lt;/div&gt;" style="rhombus;whiteSpace=wrap;html=1;" vertex="1" parent="1">
          <mxGeometry x="647" y="433.75" width="153" height="66.25" as="geometry" />
        </mxCell>
        <mxCell id="ZSUmyzXB2fES_6F9nTxg-35" value="" style="shape=note;whiteSpace=wrap;html=1;backgroundOutline=1;darkOpacity=0.05;fillColor=#FFFFCC;" vertex="1" parent="1">
          <mxGeometry x="1188" y="40" width="105" height="70" as="geometry" />
        </mxCell>
        <mxCell id="ZSUmyzXB2fES_6F9nTxg-53" value="" style="edgeStyle=orthogonalEdgeStyle;rounded=0;orthogonalLoop=1;jettySize=auto;html=1;" edge="1" parent="1" source="ZSUmyzXB2fES_6F9nTxg-42" target="ZSUmyzXB2fES_6F9nTxg-52">
          <mxGeometry relative="1" as="geometry" />
        </mxCell>
        <mxCell id="ZSUmyzXB2fES_6F9nTxg-54" value="否" style="edgeLabel;html=1;align=center;verticalAlign=middle;resizable=0;points=[];" vertex="1" connectable="0" parent="ZSUmyzXB2fES_6F9nTxg-53">
          <mxGeometry x="-0.0141" y="-5" relative="1" as="geometry">
            <mxPoint x="-3" y="5" as="offset" />
          </mxGeometry>
        </mxCell>
        <mxCell id="ZSUmyzXB2fES_6F9nTxg-63" style="edgeStyle=orthogonalEdgeStyle;rounded=0;orthogonalLoop=1;jettySize=auto;html=1;entryX=0.5;entryY=0;entryDx=0;entryDy=0;" edge="1" parent="1" source="ZSUmyzXB2fES_6F9nTxg-42" target="ZSUmyzXB2fES_6F9nTxg-19">
          <mxGeometry relative="1" as="geometry" />
        </mxCell>
        <mxCell id="ZSUmyzXB2fES_6F9nTxg-42" value="通过设置阈值，通过LCS&lt;div&gt;算法&lt;span style=&quot;background-color: transparent; color: light-dark(rgb(0, 0, 0), rgb(255, 255, 255));&quot;&gt;查找LogCluster中&lt;/span&gt;&lt;div&gt;&lt;div&gt;&lt;span style=&quot;background-color: transparent; color: light-dark(rgb(0, 0, 0), rgb(255, 255, 255));&quot;&gt;最相似的模板&lt;/span&gt;&lt;/div&gt;&lt;/div&gt;&lt;/div&gt;" style="rhombus;whiteSpace=wrap;html=1;" vertex="1" parent="1">
          <mxGeometry x="860" y="425" width="190" height="80" as="geometry" />
        </mxCell>
        <mxCell id="ZSUmyzXB2fES_6F9nTxg-43" value="简单筛选" style="text;html=1;align=center;verticalAlign=middle;resizable=0;points=[];autosize=1;strokeColor=none;fillColor=none;" vertex="1" parent="1">
          <mxGeometry x="688.5" y="400" width="70" height="30" as="geometry" />
        </mxCell>
        <mxCell id="ZSUmyzXB2fES_6F9nTxg-44" value="&lt;span style=&quot;color: rgb(0, 0, 0); font-family: Helvetica; font-size: 12px; font-style: normal; font-variant-ligatures: normal; font-variant-caps: normal; font-weight: 400; letter-spacing: normal; orphans: 2; text-align: center; text-indent: 0px; text-transform: none; widows: 2; word-spacing: 0px; -webkit-text-stroke-width: 0px; white-space: normal; background-color: rgb(251, 251, 251); text-decoration-thickness: initial; text-decoration-style: initial; text-decoration-color: initial; display: inline !important; float: none;&quot;&gt;判断是否相似的标准是固定内容长度超过阈值 tau * length&lt;/span&gt;" style="text;whiteSpace=wrap;html=1;" vertex="1" parent="1">
          <mxGeometry x="415" y="380" width="160" height="40" as="geometry" />
        </mxCell>
        <mxCell id="ZSUmyzXB2fES_6F9nTxg-46" value="LCS查找最长公共子序列，查找相似模版" style="text;html=1;align=center;verticalAlign=middle;resizable=0;points=[];autosize=1;strokeColor=none;fillColor=none;" vertex="1" parent="1">
          <mxGeometry x="860" y="385" width="240" height="30" as="geometry" />
        </mxCell>
        <mxCell id="ZSUmyzXB2fES_6F9nTxg-64" style="edgeStyle=orthogonalEdgeStyle;rounded=0;orthogonalLoop=1;jettySize=auto;html=1;entryX=0.5;entryY=0;entryDx=0;entryDy=0;" edge="1" parent="1" source="ZSUmyzXB2fES_6F9nTxg-52" target="ZSUmyzXB2fES_6F9nTxg-19">
          <mxGeometry relative="1" as="geometry">
            <mxPoint x="620" y="870" as="targetPoint" />
            <Array as="points">
              <mxPoint x="1190" y="690" />
              <mxPoint x="590" y="690" />
            </Array>
          </mxGeometry>
        </mxCell>
        <mxCell id="ZSUmyzXB2fES_6F9nTxg-52" value="新增LogCluster&lt;div&gt;rootHamNode、rootLCSNode新增节点&lt;/div&gt;" style="rounded=1;whiteSpace=wrap;html=1;" vertex="1" parent="1">
          <mxGeometry x="1130" y="433.75" width="120" height="60" as="geometry" />
        </mxCell>
        <mxCell id="ZSUmyzXB2fES_6F9nTxg-57" value="结束" style="rounded=1;whiteSpace=wrap;html=1;" vertex="1" parent="1">
          <mxGeometry x="545" y="990" width="90" height="40" as="geometry" />
        </mxCell>
        <mxCell id="ZSUmyzXB2fES_6F9nTxg-59" value="粗粒度日志解析， 细粒度日志模板提取" style="text;html=1;align=center;verticalAlign=middle;resizable=0;points=[];autosize=1;strokeColor=none;fillColor=none;" vertex="1" parent="1">
          <mxGeometry x="885" y="28" width="230" height="30" as="geometry" />
        </mxCell>
      </root>
    </mxGraphModel>
  </diagram>
</mxfile>
